<svg width="1200" height="1200" viewBox="0 0 1200 1200" fill="none" xmlns="http://www.w3.org/2000/svg">
  <rect width="1200" height="1200" fill="#070D18"/>
  <rect width="1200" height="1200" fill="url(#bg)"/>
  <circle cx="440" cy="340" r="250" fill="rgba(39,153,255,0.35)"/>
  <circle cx="860" cy="760" r="320" fill="rgba(150,92,255,0.20)"/>
  <path d="M230 760C430 430 620 290 870 300C930 300 1000 325 1035 360V980H230V760Z" fill="url(#arc)" opacity="0.9"/>
  <path d="M180 600C300 520 430 470 560 470C700 470 820 540 920 620C978 666 1028 720 1060 780" stroke="rgba(255,255,255,0.75)" stroke-width="5" stroke-linecap="round"/>
  <path d="M260 420C365 370 470 350 575 350C675 350 770 392 850 455" stroke="rgba(255,255,255,0.5)" stroke-width="4" stroke-linecap="round"/>
  <text x="600" y="1035" text-anchor="middle" fill="#EDF7FF" font-family="Arial, Helvetica, sans-serif" font-size="72" letter-spacing="10">ATLAS OF ECHOES</text>
  <defs>
    <linearGradient id="bg" x1="120" y1="100" x2="1060" y2="1080" gradientUnits="userSpaceOnUse">
      <stop stop-color="#081521"/>
      <stop offset="0.5" stop-color="#0A1226"/>
      <stop offset="1" stop-color="#090C17"/>
    </linearGradient>
    <linearGradient id="arc" x1="230" y1="310" x2="1035" y2="980" gradientUnits="userSpaceOnUse">
      <stop stop-color="#4AD0FF"/>
      <stop offset="0.52" stop-color="#72A2FF"/>
      <stop offset="1" stop-color="#431A70"/>
    </linearGradient>
  </defs>
</svg>
